<svg xmlns="http://www.w3.org/2000/svg" xmlns:xlink="http://www.w3.org/1999/xlink" width="111" zoomAndPan="magnify" viewBox="0 0 83.25 30.000001" height="40" preserveAspectRatio="xMidYMid meet" version="1.0"><defs><g/><clipPath id="83d50ff1c8"><path d="M 75 16 L 81.542969 16 L 81.542969 26 L 75 26 Z M 75 16 " clip-rule="nonzero"/></clipPath></defs><g fill="#3871c1" fill-opacity="0.4"><g transform="translate(1.588003, 13.06566)"><g><path d="M 0.609375 -8.359375 L 3.59375 -8.359375 C 4.394531 -8.359375 5.046875 -8.140625 5.546875 -7.703125 C 6.054688 -7.273438 6.3125 -6.664062 6.3125 -5.875 C 6.3125 -5.257812 6.15625 -4.742188 5.84375 -4.328125 C 5.539062 -3.910156 5.128906 -3.617188 4.609375 -3.453125 L 7.484375 0 L 5.0625 0 L 2.515625 -3.296875 L 2.515625 0 L 0.609375 0 Z M 2.515625 -4.640625 L 2.734375 -4.640625 C 2.910156 -4.640625 3.054688 -4.644531 3.171875 -4.65625 C 3.296875 -4.664062 3.4375 -4.691406 3.59375 -4.734375 C 3.75 -4.773438 3.875 -4.832031 3.96875 -4.90625 C 4.0625 -4.976562 4.140625 -5.082031 4.203125 -5.21875 C 4.273438 -5.363281 4.3125 -5.535156 4.3125 -5.734375 C 4.3125 -5.941406 4.273438 -6.113281 4.203125 -6.25 C 4.140625 -6.394531 4.0625 -6.503906 3.96875 -6.578125 C 3.875 -6.648438 3.75 -6.707031 3.59375 -6.75 C 3.4375 -6.789062 3.296875 -6.8125 3.171875 -6.8125 C 3.054688 -6.820312 2.910156 -6.828125 2.734375 -6.828125 L 2.515625 -6.828125 Z M 2.515625 -4.640625 "/></g></g></g><g fill="#3871c1" fill-opacity="0.4"><g transform="translate(9.842848, 13.06566)"><g><path d="M 2.515625 -8.359375 L 2.515625 0 L 0.609375 0 L 0.609375 -8.359375 Z M 2.515625 -8.359375 "/></g></g></g><g fill="#3871c1" fill-opacity="0.4"><g transform="translate(13.9704, 13.06566)"><g><path d="M -0.296875 -8.359375 L 1.984375 -8.359375 L 3.71875 -5.6875 L 5.46875 -8.359375 L 7.75 -8.359375 L 4.671875 -3.75 L 4.671875 0 L 2.78125 0 L 2.78125 -3.75 Z M -0.296875 -8.359375 "/></g></g></g><g fill="#3871c1" fill-opacity="0.4"><g transform="translate(22.427562, 13.06566)"><g><path d="M 4.84375 -8.359375 L 8.21875 0 L 6.171875 0 L 5.5625 -1.671875 L 2.375 -1.671875 L 1.765625 0 L -0.28125 0 L 3.09375 -8.359375 Z M 4.90625 -3.34375 L 3.984375 -5.765625 L 3.953125 -5.765625 L 3.03125 -3.34375 Z M 4.90625 -3.34375 "/></g></g></g><g fill="#000000" fill-opacity="1"><g transform="translate(0.979837, 12.457495)"><g><path d="M 0.609375 -8.359375 L 3.59375 -8.359375 C 4.394531 -8.359375 5.046875 -8.140625 5.546875 -7.703125 C 6.054688 -7.273438 6.3125 -6.664062 6.3125 -5.875 C 6.3125 -5.257812 6.15625 -4.742188 5.84375 -4.328125 C 5.539062 -3.910156 5.128906 -3.617188 4.609375 -3.453125 L 7.484375 0 L 5.0625 0 L 2.515625 -3.296875 L 2.515625 0 L 0.609375 0 Z M 2.515625 -4.640625 L 2.734375 -4.640625 C 2.910156 -4.640625 3.054688 -4.644531 3.171875 -4.65625 C 3.296875 -4.664062 3.4375 -4.691406 3.59375 -4.734375 C 3.75 -4.773438 3.875 -4.832031 3.96875 -4.90625 C 4.0625 -4.976562 4.140625 -5.082031 4.203125 -5.21875 C 4.273438 -5.363281 4.3125 -5.535156 4.3125 -5.734375 C 4.3125 -5.941406 4.273438 -6.113281 4.203125 -6.25 C 4.140625 -6.394531 4.0625 -6.503906 3.96875 -6.578125 C 3.875 -6.648438 3.75 -6.707031 3.59375 -6.75 C 3.4375 -6.789062 3.296875 -6.8125 3.171875 -6.8125 C 3.054688 -6.820312 2.910156 -6.828125 2.734375 -6.828125 L 2.515625 -6.828125 Z M 2.515625 -4.640625 "/></g></g></g><g fill="#000000" fill-opacity="1"><g transform="translate(9.234683, 12.457495)"><g><path d="M 2.515625 -8.359375 L 2.515625 0 L 0.609375 0 L 0.609375 -8.359375 Z M 2.515625 -8.359375 "/></g></g></g><g fill="#000000" fill-opacity="1"><g transform="translate(13.362235, 12.457495)"><g><path d="M -0.296875 -8.359375 L 1.984375 -8.359375 L 3.71875 -5.6875 L 5.46875 -8.359375 L 7.75 -8.359375 L 4.671875 -3.75 L 4.671875 0 L 2.78125 0 L 2.78125 -3.75 Z M -0.296875 -8.359375 "/></g></g></g><g fill="#000000" fill-opacity="1"><g transform="translate(21.819397, 12.457495)"><g><path d="M 4.84375 -8.359375 L 8.21875 0 L 6.171875 0 L 5.5625 -1.671875 L 2.375 -1.671875 L 1.765625 0 L -0.28125 0 L 3.09375 -8.359375 Z M 4.90625 -3.34375 L 3.984375 -5.765625 L 3.953125 -5.765625 L 3.03125 -3.34375 Z M 4.90625 -3.34375 "/></g></g></g><g fill="#3871c1" fill-opacity="0.4"><g transform="translate(1.588003, 25.40437)"><g><path d="M 5.390625 -8.359375 L 5.390625 -6.6875 L 2.515625 -6.6875 L 2.515625 -5.015625 L 5.265625 -5.015625 L 5.265625 -3.34375 L 2.515625 -3.34375 L 2.515625 -1.671875 L 5.390625 -1.671875 L 5.390625 0 L 0.609375 0 L 0.609375 -8.359375 Z M 5.390625 -8.359375 "/></g></g></g><g fill="#3871c1" fill-opacity="0.4"><g transform="translate(8.467088, 25.40437)"><g><path d="M 2.515625 -5.1875 L 2.515625 0 L 0.609375 0 L 0.609375 -8.359375 L 2.515625 -8.359375 L 5.828125 -3.171875 L 5.859375 -3.171875 L 5.859375 -8.359375 L 7.75 -8.359375 L 7.75 0 L 5.859375 0 L 2.53125 -5.1875 Z M 2.515625 -5.1875 "/></g></g></g><g fill="#3871c1" fill-opacity="0.4"><g transform="translate(17.834686, 25.40437)"><g><path d="M 0.078125 -6.6875 L 0.078125 -8.359375 L 5.953125 -8.359375 L 5.953125 -6.6875 L 3.96875 -6.6875 L 3.96875 0 L 2.0625 0 L 2.0625 -6.6875 Z M 0.078125 -6.6875 "/></g></g></g><g fill="#3871c1" fill-opacity="0.4"><g transform="translate(24.875618, 25.40437)"><g><path d="M 5.390625 -8.359375 L 5.390625 -6.6875 L 2.515625 -6.6875 L 2.515625 -5.015625 L 5.265625 -5.015625 L 5.265625 -3.34375 L 2.515625 -3.34375 L 2.515625 -1.671875 L 5.390625 -1.671875 L 5.390625 0 L 0.609375 0 L 0.609375 -8.359375 Z M 5.390625 -8.359375 "/></g></g></g><g fill="#3871c1" fill-opacity="0.4"><g transform="translate(31.754704, 25.40437)"><g><path d="M 0.609375 -8.359375 L 3.59375 -8.359375 C 4.394531 -8.359375 5.046875 -8.140625 5.546875 -7.703125 C 6.054688 -7.273438 6.3125 -6.664062 6.3125 -5.875 C 6.3125 -5.257812 6.15625 -4.742188 5.84375 -4.328125 C 5.539062 -3.910156 5.128906 -3.617188 4.609375 -3.453125 L 7.484375 0 L 5.0625 0 L 2.515625 -3.296875 L 2.515625 0 L 0.609375 0 Z M 2.515625 -4.640625 L 2.734375 -4.640625 C 2.910156 -4.640625 3.054688 -4.644531 3.171875 -4.65625 C 3.296875 -4.664062 3.4375 -4.691406 3.59375 -4.734375 C 3.75 -4.773438 3.875 -4.832031 3.96875 -4.90625 C 4.0625 -4.976562 4.140625 -5.082031 4.203125 -5.21875 C 4.273438 -5.363281 4.3125 -5.535156 4.3125 -5.734375 C 4.3125 -5.941406 4.273438 -6.113281 4.203125 -6.25 C 4.140625 -6.394531 4.0625 -6.503906 3.96875 -6.578125 C 3.875 -6.648438 3.75 -6.707031 3.59375 -6.75 C 3.4375 -6.789062 3.296875 -6.8125 3.171875 -6.8125 C 3.054688 -6.820312 2.910156 -6.828125 2.734375 -6.828125 L 2.515625 -6.828125 Z M 2.515625 -4.640625 "/></g></g></g><g fill="#3871c1" fill-opacity="0.4"><g transform="translate(40.009551, 25.40437)"><g><path d="M 0.609375 -8.359375 L 3.65625 -8.359375 C 4.507812 -8.359375 5.195312 -8.132812 5.71875 -7.6875 C 6.25 -7.25 6.515625 -6.613281 6.515625 -5.78125 C 6.515625 -4.945312 6.242188 -4.289062 5.703125 -3.8125 C 5.171875 -3.332031 4.488281 -3.09375 3.65625 -3.09375 L 2.515625 -3.09375 L 2.515625 0 L 0.609375 0 Z M 2.515625 -4.609375 L 3.046875 -4.609375 C 3.472656 -4.609375 3.820312 -4.695312 4.09375 -4.875 C 4.363281 -5.050781 4.5 -5.332031 4.5 -5.71875 C 4.5 -6.113281 4.363281 -6.394531 4.09375 -6.5625 C 3.820312 -6.738281 3.472656 -6.828125 3.046875 -6.828125 L 2.515625 -6.828125 Z M 2.515625 -4.609375 "/></g></g></g><g fill="#3871c1" fill-opacity="0.4"><g transform="translate(47.758606, 25.40437)"><g><path d="M 0.609375 -8.359375 L 3.59375 -8.359375 C 4.394531 -8.359375 5.046875 -8.140625 5.546875 -7.703125 C 6.054688 -7.273438 6.3125 -6.664062 6.3125 -5.875 C 6.3125 -5.257812 6.15625 -4.742188 5.84375 -4.328125 C 5.539062 -3.910156 5.128906 -3.617188 4.609375 -3.453125 L 7.484375 0 L 5.0625 0 L 2.515625 -3.296875 L 2.515625 0 L 0.609375 0 Z M 2.515625 -4.640625 L 2.734375 -4.640625 C 2.910156 -4.640625 3.054688 -4.644531 3.171875 -4.65625 C 3.296875 -4.664062 3.4375 -4.691406 3.59375 -4.734375 C 3.75 -4.773438 3.875 -4.832031 3.96875 -4.90625 C 4.0625 -4.976562 4.140625 -5.082031 4.203125 -5.21875 C 4.273438 -5.363281 4.3125 -5.535156 4.3125 -5.734375 C 4.3125 -5.941406 4.273438 -6.113281 4.203125 -6.25 C 4.140625 -6.394531 4.0625 -6.503906 3.96875 -6.578125 C 3.875 -6.648438 3.75 -6.707031 3.59375 -6.75 C 3.4375 -6.789062 3.296875 -6.8125 3.171875 -6.8125 C 3.054688 -6.820312 2.910156 -6.828125 2.734375 -6.828125 L 2.515625 -6.828125 Z M 2.515625 -4.640625 "/></g></g></g><g fill="#3871c1" fill-opacity="0.4"><g transform="translate(56.013452, 25.40437)"><g><path d="M 2.515625 -8.359375 L 2.515625 0 L 0.609375 0 L 0.609375 -8.359375 Z M 2.515625 -8.359375 "/></g></g></g><g fill="#3871c1" fill-opacity="0.4"><g transform="translate(60.141006, 25.40437)"><g><path d="M 3.6875 -8.5 C 4.132812 -8.5 4.570312 -8.429688 5 -8.296875 C 5.4375 -8.171875 5.757812 -8.046875 5.96875 -7.921875 L 6.28125 -7.71875 L 5.515625 -6.203125 C 5.453125 -6.234375 5.363281 -6.28125 5.25 -6.34375 C 5.144531 -6.414062 4.941406 -6.503906 4.640625 -6.609375 C 4.347656 -6.722656 4.070312 -6.78125 3.8125 -6.78125 C 3.5 -6.78125 3.253906 -6.710938 3.078125 -6.578125 C 2.910156 -6.441406 2.828125 -6.257812 2.828125 -6.03125 C 2.828125 -5.914062 2.863281 -5.804688 2.9375 -5.703125 C 3.019531 -5.609375 3.160156 -5.503906 3.359375 -5.390625 C 3.554688 -5.273438 3.726562 -5.179688 3.875 -5.109375 C 4.019531 -5.046875 4.25 -4.945312 4.5625 -4.8125 C 5.101562 -4.582031 5.5625 -4.269531 5.9375 -3.875 C 6.320312 -3.488281 6.515625 -3.046875 6.515625 -2.546875 C 6.515625 -2.066406 6.425781 -1.644531 6.25 -1.28125 C 6.082031 -0.925781 5.847656 -0.644531 5.546875 -0.4375 C 5.253906 -0.238281 4.925781 -0.09375 4.5625 0 C 4.195312 0.101562 3.800781 0.15625 3.375 0.15625 C 3.007812 0.15625 2.648438 0.113281 2.296875 0.03125 C 1.941406 -0.0390625 1.644531 -0.128906 1.40625 -0.234375 C 1.175781 -0.347656 0.96875 -0.457031 0.78125 -0.5625 C 0.59375 -0.675781 0.453125 -0.769531 0.359375 -0.84375 L 0.234375 -0.953125 L 1.1875 -2.546875 C 1.269531 -2.484375 1.378906 -2.398438 1.515625 -2.296875 C 1.660156 -2.191406 1.910156 -2.050781 2.265625 -1.875 C 2.628906 -1.695312 2.953125 -1.609375 3.234375 -1.609375 C 4.035156 -1.609375 4.4375 -1.882812 4.4375 -2.4375 C 4.4375 -2.550781 4.40625 -2.65625 4.34375 -2.75 C 4.289062 -2.84375 4.191406 -2.9375 4.046875 -3.03125 C 3.898438 -3.132812 3.769531 -3.210938 3.65625 -3.265625 C 3.550781 -3.328125 3.367188 -3.414062 3.109375 -3.53125 C 2.859375 -3.65625 2.671875 -3.75 2.546875 -3.8125 C 2.046875 -4.0625 1.65625 -4.375 1.375 -4.75 C 1.101562 -5.125 0.96875 -5.523438 0.96875 -5.953125 C 0.96875 -6.703125 1.242188 -7.3125 1.796875 -7.78125 C 2.347656 -8.257812 2.976562 -8.5 3.6875 -8.5 Z M 3.6875 -8.5 "/></g></g></g><g fill="#3871c1" fill-opacity="0.4"><g transform="translate(67.950751, 25.40437)"><g><path d="M 5.390625 -8.359375 L 5.390625 -6.6875 L 2.515625 -6.6875 L 2.515625 -5.015625 L 5.265625 -5.015625 L 5.265625 -3.34375 L 2.515625 -3.34375 L 2.515625 -1.671875 L 5.390625 -1.671875 L 5.390625 0 L 0.609375 0 L 0.609375 -8.359375 Z M 5.390625 -8.359375 "/></g></g></g><g clip-path="url(#83d50ff1c8)"><g fill="#3871c1" fill-opacity="0.4"><g transform="translate(74.829837, 25.40437)"><g><path d="M 3.6875 -8.5 C 4.132812 -8.5 4.570312 -8.429688 5 -8.296875 C 5.4375 -8.171875 5.757812 -8.046875 5.96875 -7.921875 L 6.28125 -7.71875 L 5.515625 -6.203125 C 5.453125 -6.234375 5.363281 -6.28125 5.25 -6.34375 C 5.144531 -6.414062 4.941406 -6.503906 4.640625 -6.609375 C 4.347656 -6.722656 4.070312 -6.78125 3.8125 -6.78125 C 3.5 -6.78125 3.253906 -6.710938 3.078125 -6.578125 C 2.910156 -6.441406 2.828125 -6.257812 2.828125 -6.03125 C 2.828125 -5.914062 2.863281 -5.804688 2.9375 -5.703125 C 3.019531 -5.609375 3.160156 -5.503906 3.359375 -5.390625 C 3.554688 -5.273438 3.726562 -5.179688 3.875 -5.109375 C 4.019531 -5.046875 4.25 -4.945312 4.5625 -4.8125 C 5.101562 -4.582031 5.5625 -4.269531 5.9375 -3.875 C 6.320312 -3.488281 6.515625 -3.046875 6.515625 -2.546875 C 6.515625 -2.066406 6.425781 -1.644531 6.25 -1.28125 C 6.082031 -0.925781 5.847656 -0.644531 5.546875 -0.4375 C 5.253906 -0.238281 4.925781 -0.09375 4.5625 0 C 4.195312 0.101562 3.800781 0.15625 3.375 0.15625 C 3.007812 0.15625 2.648438 0.113281 2.296875 0.03125 C 1.941406 -0.0390625 1.644531 -0.128906 1.40625 -0.234375 C 1.175781 -0.347656 0.96875 -0.457031 0.78125 -0.5625 C 0.59375 -0.675781 0.453125 -0.769531 0.359375 -0.84375 L 0.234375 -0.953125 L 1.1875 -2.546875 C 1.269531 -2.484375 1.378906 -2.398438 1.515625 -2.296875 C 1.660156 -2.191406 1.910156 -2.050781 2.265625 -1.875 C 2.628906 -1.695312 2.953125 -1.609375 3.234375 -1.609375 C 4.035156 -1.609375 4.4375 -1.882812 4.4375 -2.4375 C 4.4375 -2.550781 4.40625 -2.65625 4.34375 -2.75 C 4.289062 -2.84375 4.191406 -2.9375 4.046875 -3.03125 C 3.898438 -3.132812 3.769531 -3.210938 3.65625 -3.265625 C 3.550781 -3.328125 3.367188 -3.414062 3.109375 -3.53125 C 2.859375 -3.65625 2.671875 -3.75 2.546875 -3.8125 C 2.046875 -4.0625 1.65625 -4.375 1.375 -4.75 C 1.101562 -5.125 0.96875 -5.523438 0.96875 -5.953125 C 0.96875 -6.703125 1.242188 -7.3125 1.796875 -7.78125 C 2.347656 -8.257812 2.976562 -8.5 3.6875 -8.5 Z M 3.6875 -8.5 "/></g></g></g></g><g fill="#000000" fill-opacity="1"><g transform="translate(0.979837, 24.796204)"><g><path d="M 5.390625 -8.359375 L 5.390625 -6.6875 L 2.515625 -6.6875 L 2.515625 -5.015625 L 5.265625 -5.015625 L 5.265625 -3.34375 L 2.515625 -3.34375 L 2.515625 -1.671875 L 5.390625 -1.671875 L 5.390625 0 L 0.609375 0 L 0.609375 -8.359375 Z M 5.390625 -8.359375 "/></g></g></g><g fill="#000000" fill-opacity="1"><g transform="translate(7.858922, 24.796204)"><g><path d="M 2.515625 -5.1875 L 2.515625 0 L 0.609375 0 L 0.609375 -8.359375 L 2.515625 -8.359375 L 5.828125 -3.171875 L 5.859375 -3.171875 L 5.859375 -8.359375 L 7.75 -8.359375 L 7.75 0 L 5.859375 0 L 2.53125 -5.1875 Z M 2.515625 -5.1875 "/></g></g></g><g fill="#000000" fill-opacity="1"><g transform="translate(17.226521, 24.796204)"><g><path d="M 0.078125 -6.6875 L 0.078125 -8.359375 L 5.953125 -8.359375 L 5.953125 -6.6875 L 3.96875 -6.6875 L 3.96875 0 L 2.0625 0 L 2.0625 -6.6875 Z M 0.078125 -6.6875 "/></g></g></g><g fill="#000000" fill-opacity="1"><g transform="translate(24.267453, 24.796204)"><g><path d="M 5.390625 -8.359375 L 5.390625 -6.6875 L 2.515625 -6.6875 L 2.515625 -5.015625 L 5.265625 -5.015625 L 5.265625 -3.34375 L 2.515625 -3.34375 L 2.515625 -1.671875 L 5.390625 -1.671875 L 5.390625 0 L 0.609375 0 L 0.609375 -8.359375 Z M 5.390625 -8.359375 "/></g></g></g><g fill="#000000" fill-opacity="1"><g transform="translate(31.146539, 24.796204)"><g><path d="M 0.609375 -8.359375 L 3.59375 -8.359375 C 4.394531 -8.359375 5.046875 -8.140625 5.546875 -7.703125 C 6.054688 -7.273438 6.3125 -6.664062 6.3125 -5.875 C 6.3125 -5.257812 6.15625 -4.742188 5.84375 -4.328125 C 5.539062 -3.910156 5.128906 -3.617188 4.609375 -3.453125 L 7.484375 0 L 5.0625 0 L 2.515625 -3.296875 L 2.515625 0 L 0.609375 0 Z M 2.515625 -4.640625 L 2.734375 -4.640625 C 2.910156 -4.640625 3.054688 -4.644531 3.171875 -4.65625 C 3.296875 -4.664062 3.4375 -4.691406 3.59375 -4.734375 C 3.75 -4.773438 3.875 -4.832031 3.96875 -4.90625 C 4.0625 -4.976562 4.140625 -5.082031 4.203125 -5.21875 C 4.273438 -5.363281 4.3125 -5.535156 4.3125 -5.734375 C 4.3125 -5.941406 4.273438 -6.113281 4.203125 -6.25 C 4.140625 -6.394531 4.0625 -6.503906 3.96875 -6.578125 C 3.875 -6.648438 3.75 -6.707031 3.59375 -6.75 C 3.4375 -6.789062 3.296875 -6.8125 3.171875 -6.8125 C 3.054688 -6.820312 2.910156 -6.828125 2.734375 -6.828125 L 2.515625 -6.828125 Z M 2.515625 -4.640625 "/></g></g></g><g fill="#000000" fill-opacity="1"><g transform="translate(39.401385, 24.796204)"><g><path d="M 0.609375 -8.359375 L 3.65625 -8.359375 C 4.507812 -8.359375 5.195312 -8.132812 5.71875 -7.6875 C 6.25 -7.25 6.515625 -6.613281 6.515625 -5.78125 C 6.515625 -4.945312 6.242188 -4.289062 5.703125 -3.8125 C 5.171875 -3.332031 4.488281 -3.09375 3.65625 -3.09375 L 2.515625 -3.09375 L 2.515625 0 L 0.609375 0 Z M 2.515625 -4.609375 L 3.046875 -4.609375 C 3.472656 -4.609375 3.820312 -4.695312 4.09375 -4.875 C 4.363281 -5.050781 4.5 -5.332031 4.5 -5.71875 C 4.5 -6.113281 4.363281 -6.394531 4.09375 -6.5625 C 3.820312 -6.738281 3.472656 -6.828125 3.046875 -6.828125 L 2.515625 -6.828125 Z M 2.515625 -4.609375 "/></g></g></g><g fill="#000000" fill-opacity="1"><g transform="translate(47.15044, 24.796204)"><g><path d="M 0.609375 -8.359375 L 3.59375 -8.359375 C 4.394531 -8.359375 5.046875 -8.140625 5.546875 -7.703125 C 6.054688 -7.273438 6.3125 -6.664062 6.3125 -5.875 C 6.3125 -5.257812 6.15625 -4.742188 5.84375 -4.328125 C 5.539062 -3.910156 5.128906 -3.617188 4.609375 -3.453125 L 7.484375 0 L 5.0625 0 L 2.515625 -3.296875 L 2.515625 0 L 0.609375 0 Z M 2.515625 -4.640625 L 2.734375 -4.640625 C 2.910156 -4.640625 3.054688 -4.644531 3.171875 -4.65625 C 3.296875 -4.664062 3.4375 -4.691406 3.59375 -4.734375 C 3.75 -4.773438 3.875 -4.832031 3.96875 -4.90625 C 4.0625 -4.976562 4.140625 -5.082031 4.203125 -5.21875 C 4.273438 -5.363281 4.3125 -5.535156 4.3125 -5.734375 C 4.3125 -5.941406 4.273438 -6.113281 4.203125 -6.25 C 4.140625 -6.394531 4.0625 -6.503906 3.96875 -6.578125 C 3.875 -6.648438 3.75 -6.707031 3.59375 -6.75 C 3.4375 -6.789062 3.296875 -6.8125 3.171875 -6.8125 C 3.054688 -6.820312 2.910156 -6.828125 2.734375 -6.828125 L 2.515625 -6.828125 Z M 2.515625 -4.640625 "/></g></g></g><g fill="#000000" fill-opacity="1"><g transform="translate(55.405287, 24.796204)"><g><path d="M 2.515625 -8.359375 L 2.515625 0 L 0.609375 0 L 0.609375 -8.359375 Z M 2.515625 -8.359375 "/></g></g></g><g fill="#000000" fill-opacity="1"><g transform="translate(59.53284, 24.796204)"><g><path d="M 3.6875 -8.5 C 4.132812 -8.5 4.570312 -8.429688 5 -8.296875 C 5.4375 -8.171875 5.757812 -8.046875 5.96875 -7.921875 L 6.28125 -7.71875 L 5.515625 -6.203125 C 5.453125 -6.234375 5.363281 -6.28125 5.25 -6.34375 C 5.144531 -6.414062 4.941406 -6.503906 4.640625 -6.609375 C 4.347656 -6.722656 4.070312 -6.78125 3.8125 -6.78125 C 3.5 -6.78125 3.253906 -6.710938 3.078125 -6.578125 C 2.910156 -6.441406 2.828125 -6.257812 2.828125 -6.03125 C 2.828125 -5.914062 2.863281 -5.804688 2.9375 -5.703125 C 3.019531 -5.609375 3.160156 -5.503906 3.359375 -5.390625 C 3.554688 -5.273438 3.726562 -5.179688 3.875 -5.109375 C 4.019531 -5.046875 4.25 -4.945312 4.5625 -4.8125 C 5.101562 -4.582031 5.5625 -4.269531 5.9375 -3.875 C 6.320312 -3.488281 6.515625 -3.046875 6.515625 -2.546875 C 6.515625 -2.066406 6.425781 -1.644531 6.25 -1.28125 C 6.082031 -0.925781 5.847656 -0.644531 5.546875 -0.4375 C 5.253906 -0.238281 4.925781 -0.09375 4.5625 0 C 4.195312 0.101562 3.800781 0.15625 3.375 0.15625 C 3.007812 0.15625 2.648438 0.113281 2.296875 0.03125 C 1.941406 -0.0390625 1.644531 -0.128906 1.40625 -0.234375 C 1.175781 -0.347656 0.96875 -0.457031 0.78125 -0.5625 C 0.59375 -0.675781 0.453125 -0.769531 0.359375 -0.84375 L 0.234375 -0.953125 L 1.1875 -2.546875 C 1.269531 -2.484375 1.378906 -2.398438 1.515625 -2.296875 C 1.660156 -2.191406 1.910156 -2.050781 2.265625 -1.875 C 2.628906 -1.695312 2.953125 -1.609375 3.234375 -1.609375 C 4.035156 -1.609375 4.4375 -1.882812 4.4375 -2.4375 C 4.4375 -2.550781 4.40625 -2.65625 4.34375 -2.75 C 4.289062 -2.84375 4.191406 -2.9375 4.046875 -3.03125 C 3.898438 -3.132812 3.769531 -3.210938 3.65625 -3.265625 C 3.550781 -3.328125 3.367188 -3.414062 3.109375 -3.53125 C 2.859375 -3.65625 2.671875 -3.75 2.546875 -3.8125 C 2.046875 -4.0625 1.65625 -4.375 1.375 -4.75 C 1.101562 -5.125 0.96875 -5.523438 0.96875 -5.953125 C 0.96875 -6.703125 1.242188 -7.3125 1.796875 -7.78125 C 2.347656 -8.257812 2.976562 -8.5 3.6875 -8.5 Z M 3.6875 -8.5 "/></g></g></g><g fill="#000000" fill-opacity="1"><g transform="translate(67.342586, 24.796204)"><g><path d="M 5.390625 -8.359375 L 5.390625 -6.6875 L 2.515625 -6.6875 L 2.515625 -5.015625 L 5.265625 -5.015625 L 5.265625 -3.34375 L 2.515625 -3.34375 L 2.515625 -1.671875 L 5.390625 -1.671875 L 5.390625 0 L 0.609375 0 L 0.609375 -8.359375 Z M 5.390625 -8.359375 "/></g></g></g><g fill="#000000" fill-opacity="1"><g transform="translate(74.221672, 24.796204)"><g><path d="M 3.6875 -8.5 C 4.132812 -8.5 4.570312 -8.429688 5 -8.296875 C 5.4375 -8.171875 5.757812 -8.046875 5.96875 -7.921875 L 6.28125 -7.71875 L 5.515625 -6.203125 C 5.453125 -6.234375 5.363281 -6.28125 5.25 -6.34375 C 5.144531 -6.414062 4.941406 -6.503906 4.640625 -6.609375 C 4.347656 -6.722656 4.070312 -6.78125 3.8125 -6.78125 C 3.5 -6.78125 3.253906 -6.710938 3.078125 -6.578125 C 2.910156 -6.441406 2.828125 -6.257812 2.828125 -6.03125 C 2.828125 -5.914062 2.863281 -5.804688 2.9375 -5.703125 C 3.019531 -5.609375 3.160156 -5.503906 3.359375 -5.390625 C 3.554688 -5.273438 3.726562 -5.179688 3.875 -5.109375 C 4.019531 -5.046875 4.25 -4.945312 4.5625 -4.8125 C 5.101562 -4.582031 5.5625 -4.269531 5.9375 -3.875 C 6.320312 -3.488281 6.515625 -3.046875 6.515625 -2.546875 C 6.515625 -2.066406 6.425781 -1.644531 6.25 -1.28125 C 6.082031 -0.925781 5.847656 -0.644531 5.546875 -0.4375 C 5.253906 -0.238281 4.925781 -0.09375 4.5625 0 C 4.195312 0.101562 3.800781 0.15625 3.375 0.15625 C 3.007812 0.15625 2.648438 0.113281 2.296875 0.03125 C 1.941406 -0.0390625 1.644531 -0.128906 1.40625 -0.234375 C 1.175781 -0.347656 0.96875 -0.457031 0.78125 -0.5625 C 0.59375 -0.675781 0.453125 -0.769531 0.359375 -0.84375 L 0.234375 -0.953125 L 1.1875 -2.546875 C 1.269531 -2.484375 1.378906 -2.398438 1.515625 -2.296875 C 1.660156 -2.191406 1.910156 -2.050781 2.265625 -1.875 C 2.628906 -1.695312 2.953125 -1.609375 3.234375 -1.609375 C 4.035156 -1.609375 4.4375 -1.882812 4.4375 -2.4375 C 4.4375 -2.550781 4.40625 -2.65625 4.34375 -2.75 C 4.289062 -2.84375 4.191406 -2.9375 4.046875 -3.03125 C 3.898438 -3.132812 3.769531 -3.210938 3.65625 -3.265625 C 3.550781 -3.328125 3.367188 -3.414062 3.109375 -3.53125 C 2.859375 -3.65625 2.671875 -3.75 2.546875 -3.8125 C 2.046875 -4.0625 1.65625 -4.375 1.375 -4.75 C 1.101562 -5.125 0.96875 -5.523438 0.96875 -5.953125 C 0.96875 -6.703125 1.242188 -7.3125 1.796875 -7.78125 C 2.347656 -8.257812 2.976562 -8.5 3.6875 -8.5 Z M 3.6875 -8.5 "/></g></g></g></svg>